<mxfile host="app.diagrams.net" modified="2023-12-01T07:31:23.346Z" agent="Mozilla/5.0 (Windows NT 10.0; Win64; x64) AppleWebKit/537.36 (KHTML, like Gecko) Chrome/119.0.0.0 Safari/537.36 Edg/119.0.0.0" etag="DqJe8muLlNFMC_pAoEjr" version="22.1.5" type="github">
  <diagram id="C5RBs43oDa-KdzZeNtuy" name="WO Flow">
    <mxGraphModel dx="1131" dy="654" grid="1" gridSize="10" guides="1" tooltips="1" connect="1" arrows="1" fold="1" page="1" pageScale="1" pageWidth="1169" pageHeight="827" math="0" shadow="0">
      <root>
        <mxCell id="WIyWlLk6GJQsqaUBKTNV-0" />
        <mxCell id="WIyWlLk6GJQsqaUBKTNV-1" parent="WIyWlLk6GJQsqaUBKTNV-0" />
        <mxCell id="tXJf2z_1beXB19hdbaHJ-4" value="E1 Issue WO" style="rounded=1;whiteSpace=wrap;html=1;" vertex="1" parent="WIyWlLk6GJQsqaUBKTNV-1">
          <mxGeometry x="40" y="160" width="120" height="60" as="geometry" />
        </mxCell>
        <mxCell id="tXJf2z_1beXB19hdbaHJ-5" value="Send to MES" style="rounded=1;whiteSpace=wrap;html=1;" vertex="1" parent="WIyWlLk6GJQsqaUBKTNV-1">
          <mxGeometry x="200" y="160" width="120" height="60" as="geometry" />
        </mxCell>
        <mxCell id="tXJf2z_1beXB19hdbaHJ-6" value="Send to EWO" style="rounded=1;whiteSpace=wrap;html=1;" vertex="1" parent="WIyWlLk6GJQsqaUBKTNV-1">
          <mxGeometry x="200" y="240" width="120" height="60" as="geometry" />
        </mxCell>
        <mxCell id="tXJf2z_1beXB19hdbaHJ-7" value="MES Create WO" style="rounded=1;whiteSpace=wrap;html=1;" vertex="1" parent="WIyWlLk6GJQsqaUBKTNV-1">
          <mxGeometry x="360" y="160" width="120" height="60" as="geometry" />
        </mxCell>
        <mxCell id="tXJf2z_1beXB19hdbaHJ-8" value="EWO Create WO" style="rounded=1;whiteSpace=wrap;html=1;" vertex="1" parent="WIyWlLk6GJQsqaUBKTNV-1">
          <mxGeometry x="360" y="240" width="120" height="60" as="geometry" />
        </mxCell>
        <mxCell id="tXJf2z_1beXB19hdbaHJ-9" value="EWO Approve" style="rounded=1;whiteSpace=wrap;html=1;" vertex="1" parent="WIyWlLk6GJQsqaUBKTNV-1">
          <mxGeometry x="520" y="240" width="120" height="60" as="geometry" />
        </mxCell>
        <mxCell id="tXJf2z_1beXB19hdbaHJ-10" value="MES Release &amp;amp; &lt;br&gt;Start WO&lt;br&gt;(Expand Panel Material)" style="rounded=1;whiteSpace=wrap;html=1;" vertex="1" parent="WIyWlLk6GJQsqaUBKTNV-1">
          <mxGeometry x="680" y="240" width="120" height="60" as="geometry" />
        </mxCell>
        <mxCell id="tXJf2z_1beXB19hdbaHJ-11" value="Start" style="ellipse;whiteSpace=wrap;html=1;aspect=fixed;" vertex="1" parent="WIyWlLk6GJQsqaUBKTNV-1">
          <mxGeometry x="60" y="50" width="80" height="80" as="geometry" />
        </mxCell>
        <mxCell id="tXJf2z_1beXB19hdbaHJ-12" value="GL Split WO to Lots" style="rounded=1;whiteSpace=wrap;html=1;" vertex="1" parent="WIyWlLk6GJQsqaUBKTNV-1">
          <mxGeometry x="840" y="240" width="120" height="60" as="geometry" />
        </mxCell>
        <mxCell id="tXJf2z_1beXB19hdbaHJ-13" value="Dispatch Lot to Line&lt;br&gt;(According to PM Scheduling)" style="rounded=1;whiteSpace=wrap;html=1;" vertex="1" parent="WIyWlLk6GJQsqaUBKTNV-1">
          <mxGeometry x="1000" y="240" width="120" height="60" as="geometry" />
        </mxCell>
        <mxCell id="tXJf2z_1beXB19hdbaHJ-14" value="GPS TC Verify" style="rounded=1;whiteSpace=wrap;html=1;" vertex="1" parent="WIyWlLk6GJQsqaUBKTNV-1">
          <mxGeometry x="1160" y="240" width="120" height="60" as="geometry" />
        </mxCell>
        <mxCell id="tXJf2z_1beXB19hdbaHJ-15" value="Panel Track in" style="rounded=1;whiteSpace=wrap;html=1;" vertex="1" parent="WIyWlLk6GJQsqaUBKTNV-1">
          <mxGeometry x="1320" y="240" width="120" height="60" as="geometry" />
        </mxCell>
        <mxCell id="tXJf2z_1beXB19hdbaHJ-16" value="Panel Track in" style="rounded=1;whiteSpace=wrap;html=1;" vertex="1" parent="WIyWlLk6GJQsqaUBKTNV-1">
          <mxGeometry x="1480" y="240" width="120" height="60" as="geometry" />
        </mxCell>
        <mxCell id="tXJf2z_1beXB19hdbaHJ-17" value="Laser" style="rounded=1;whiteSpace=wrap;html=1;" vertex="1" parent="WIyWlLk6GJQsqaUBKTNV-1">
          <mxGeometry x="1640" y="240" width="120" height="60" as="geometry" />
        </mxCell>
        <mxCell id="tXJf2z_1beXB19hdbaHJ-18" value="Printer" style="rounded=1;whiteSpace=wrap;html=1;" vertex="1" parent="WIyWlLk6GJQsqaUBKTNV-1">
          <mxGeometry x="1800" y="240" width="120" height="60" as="geometry" />
        </mxCell>
        <mxCell id="tXJf2z_1beXB19hdbaHJ-19" value="SPI" style="rounded=1;whiteSpace=wrap;html=1;" vertex="1" parent="WIyWlLk6GJQsqaUBKTNV-1">
          <mxGeometry x="1960" y="240" width="120" height="60" as="geometry" />
        </mxCell>
        <mxCell id="tXJf2z_1beXB19hdbaHJ-21" value="P&amp;amp;P" style="rounded=1;whiteSpace=wrap;html=1;" vertex="1" parent="WIyWlLk6GJQsqaUBKTNV-1">
          <mxGeometry x="2120" y="240" width="120" height="60" as="geometry" />
        </mxCell>
        <mxCell id="tXJf2z_1beXB19hdbaHJ-22" value="Reflow" style="rounded=1;whiteSpace=wrap;html=1;" vertex="1" parent="WIyWlLk6GJQsqaUBKTNV-1">
          <mxGeometry x="2280" y="240" width="120" height="60" as="geometry" />
        </mxCell>
        <mxCell id="tXJf2z_1beXB19hdbaHJ-23" value="WO Flow" style="swimlane;childLayout=stackLayout;resizeParent=1;resizeParentMax=0;horizontal=1;startSize=20;horizontalStack=0;html=1;" vertex="1" parent="WIyWlLk6GJQsqaUBKTNV-1">
          <mxGeometry x="40" y="447" width="480" height="380" as="geometry" />
        </mxCell>
        <mxCell id="tXJf2z_1beXB19hdbaHJ-24" value="OP" style="swimlane;startSize=20;horizontal=0;html=1;" vertex="1" parent="tXJf2z_1beXB19hdbaHJ-23">
          <mxGeometry y="20" width="480" height="120" as="geometry" />
        </mxCell>
        <mxCell id="tXJf2z_1beXB19hdbaHJ-25" value="GL" style="swimlane;startSize=20;horizontal=0;html=1;" vertex="1" parent="tXJf2z_1beXB19hdbaHJ-23">
          <mxGeometry y="140" width="480" height="120" as="geometry" />
        </mxCell>
        <mxCell id="tXJf2z_1beXB19hdbaHJ-26" value="MES System" style="swimlane;startSize=20;horizontal=0;html=1;" vertex="1" parent="tXJf2z_1beXB19hdbaHJ-23">
          <mxGeometry y="260" width="480" height="120" as="geometry" />
        </mxCell>
        <mxCell id="tXJf2z_1beXB19hdbaHJ-27" value="GPS System" style="swimlane;startSize=20;horizontal=0;html=1;" vertex="1" parent="WIyWlLk6GJQsqaUBKTNV-1">
          <mxGeometry x="40" y="827" width="480" height="120" as="geometry" />
        </mxCell>
        <mxCell id="tXJf2z_1beXB19hdbaHJ-28" value="EWO System" style="swimlane;startSize=20;horizontal=0;html=1;" vertex="1" parent="WIyWlLk6GJQsqaUBKTNV-1">
          <mxGeometry x="40" y="947" width="480" height="120" as="geometry" />
        </mxCell>
      </root>
    </mxGraphModel>
  </diagram>
</mxfile>
